<svg width="74" height="57" viewBox="0 0 74 57" fill="none" xmlns="http://www.w3.org/2000/svg">
<path d="M33.0866 0.119998L18.6686 24.258C23.0966 24.582 26.7146 26.31 29.5226 29.442C32.3306 32.466 33.7346 36.084 33.7346 40.296C33.7346 44.724 32.2226 48.504 29.1986 51.636C26.1746 54.768 22.2326 56.334 17.3726 56.334C12.6206 56.334 8.62461 54.822 5.38461 51.798C2.14461 48.666 0.524609 44.508 0.524609 39.324C0.524609 36.624 1.17261 33.654 2.46861 30.414C3.76461 27.066 5.87061 23.124 8.78661 18.588C11.8106 14.052 15.6986 8.48999 20.4506 1.90199L21.7466 0.119998H33.0866ZM72.6146 0.119998L58.1966 24.258C62.6246 24.582 66.2426 26.31 69.0506 29.442C71.8586 32.466 73.2626 36.084 73.2626 40.296C73.2626 44.724 71.7506 48.504 68.7266 51.636C65.7026 54.768 61.7606 56.334 56.9006 56.334C52.1486 56.334 48.1526 54.822 44.9126 51.798C41.6726 48.666 40.0526 44.508 40.0526 39.324C40.0526 36.624 40.7006 33.654 41.9966 30.414C43.2926 27.066 45.3986 23.124 48.3146 18.588C51.3386 14.052 55.2266 8.48999 59.9786 1.90199L61.2746 0.119998H72.6146Z" fill="#DF3295" fill-opacity="0.6"/>
</svg>
