<svg width="222" height="145" viewBox="0 0 222 145" fill="none" xmlns="http://www.w3.org/2000/svg">
<g clip-path="url(#clip0_242_1615)">
<path fill-rule="evenodd" clip-rule="evenodd" d="M137.592 19.4755V30.9889L119.049 41.6473C118.619 41.8963 118.133 41.8963 117.709 41.6473C117.279 41.4031 117.034 40.9803 117.034 40.4871V30.5238C117.034 30.0306 117.284 29.6078 117.704 29.3683L124.217 25.6244C124.646 25.3755 124.892 24.9527 124.892 24.4642C124.892 23.9709 124.641 23.5482 124.217 23.3039L107.689 13.8057C107.26 13.5662 106.769 13.5662 106.344 13.8057C105.915 14.0547 105.674 14.4728 105.674 14.966C105.674 34.3522 105.669 53.7385 105.674 73.1248C105.674 73.5616 105.48 73.9421 105.136 74.1958C104.923 74.4776 104.65 74.7125 104.329 74.8957L95.6402 79.8891C94.7907 80.3776 93.8138 80.3776 92.9643 79.8891L63.7223 63.0817C62.8775 62.5931 62.3867 61.7523 62.3867 60.7752V49.2619L80.9296 38.6034C81.3591 38.3544 81.8499 38.3544 82.2699 38.6081C82.7041 38.8477 82.9448 39.2704 82.9448 39.7637V49.7269C82.9448 50.2201 82.7041 50.6429 82.2746 50.8872L75.7617 54.631C75.3323 54.88 75.0916 55.298 75.0916 55.7866C75.0916 56.2798 75.3323 56.7073 75.7617 56.9468L92.2894 66.445C92.7189 66.694 93.2097 66.694 93.6344 66.445C94.0639 66.1961 94.3093 65.778 94.3093 65.2848C94.3046 45.8985 94.3093 26.5169 94.3093 7.12599C94.3093 6.67973 94.5028 6.29924 94.8568 6.04558C95.0645 5.77313 95.3335 5.54296 95.6544 5.35976L104.338 0.366399C105.188 -0.122133 106.165 -0.122133 107.014 0.366399L136.256 17.1738C137.106 17.6623 137.592 18.4984 137.592 19.4755Z" fill="url(#paint0_linear_242_1615)"/>
<path fill-rule="evenodd" clip-rule="evenodd" d="M160.311 42.5166C160.311 43.4936 159.825 44.3345 158.975 44.823L119.048 67.7605C118.619 68.0048 118.128 68.0048 117.703 67.7605C117.279 67.5115 117.033 67.0935 117.033 66.6002V57.4027C117.033 56.4256 117.519 55.5895 118.369 55.0963L146.936 38.6835C147.365 38.4345 147.611 38.0164 147.611 37.5232C147.611 37.0347 147.361 36.6072 146.936 36.3676L137.591 30.9938L147.615 25.2394C148.465 24.7509 149.437 24.7509 150.287 25.2394L158.971 30.2281C159.825 30.7213 160.306 31.5575 160.306 32.5392L160.311 42.5166Z" fill="url(#paint1_linear_242_1615)"/>
<path d="M15.6545 123.256V120.987H15.5366C15.2251 121.72 13.1391 123.641 9.58528 123.641C5.02625 123.641 0 120.217 0 113.255C0 106.294 5.02625 102.869 9.58528 102.869C13.1438 102.869 15.2298 104.791 15.5366 105.523H15.6545V95.9453H21.6436V123.261H15.6545V123.256ZM10.8218 118.333C13.4505 118.333 15.8103 116.525 15.8103 113.255C15.8103 109.986 13.4505 108.177 10.8218 108.177C8.26854 108.177 5.91352 110.023 5.91352 113.255C5.91352 116.487 8.27326 118.333 10.8218 118.333Z" fill="#222160"/>
<path d="M32.2765 123.026L23.9277 103.25H30.0348L35.1365 116.252L40.2383 103.25H46.3453L37.921 123.256L34.8298 130.565H28.954L32.2765 123.026Z" fill="#222160"/>
<path d="M54.6189 95.9402V105.518H54.7369C55.0484 104.785 57.1344 102.864 60.6882 102.864C65.2472 102.864 70.2735 106.289 70.2735 113.25C70.2735 120.212 65.2472 123.636 60.6882 123.636C57.1297 123.636 55.0437 121.715 54.7369 120.982H54.6189V123.251H48.6299V95.9355H54.6189V95.9402ZM59.4517 118.333C62.0049 118.333 64.3599 116.487 64.3599 113.255C64.3599 110.023 62.0002 108.177 59.4517 108.177C56.8229 108.177 54.4632 109.986 54.4632 113.255C54.4632 116.524 56.8229 118.333 59.4517 118.333Z" fill="#222160"/>
<path d="M72.9443 95.9404H78.9334V101.136H72.9443V95.9404ZM72.9443 103.25H78.9334V123.256H72.9443V103.25Z" fill="#222160"/>
<path d="M82.3359 113.293C82.3359 106.599 87.4377 102.864 92.5772 102.864C96.0555 102.864 99.4205 104.555 101.119 107.787L99.6895 108.558C98.2595 105.941 95.5127 104.518 92.6527 104.518C88.4382 104.518 84.1482 107.595 84.1482 113.288C84.1482 118.906 88.4382 121.983 92.6527 121.983C95.5127 121.983 98.2595 120.559 99.6895 117.943L101.119 118.713C99.4205 121.945 96.0555 123.636 92.5772 123.636C87.4377 123.641 82.3359 119.911 82.3359 113.293Z" fill="#222160"/>
<path d="M105.259 103.249H107.038V107.787C107.85 105.171 109.936 102.864 113.607 102.864C114.07 102.864 114.381 102.902 114.613 102.982V104.598C114.344 104.56 114.07 104.522 113.645 104.522C110.011 104.522 107.033 107.407 107.033 112.254V123.256H105.254V103.249H105.259Z" fill="#222160"/>
<path d="M117.161 113.218C117.161 106.524 121.994 102.869 127.015 102.869C132.117 102.869 137.143 106.599 136.563 113.871H118.86C119.172 119.141 123.075 121.988 127.478 121.988C130.182 121.988 132.617 120.95 134.09 119.103L135.133 120.142C133.278 122.41 130.343 123.641 127.284 123.641C121.994 123.641 117.161 119.949 117.161 113.218ZM134.982 112.367C134.826 107.365 131.117 104.518 127.02 104.518C123.037 104.518 119.252 107.21 118.903 112.367H134.982Z" fill="#222160"/>
<path d="M139.739 113.255C139.739 106.486 144.648 102.869 149.749 102.869C153.577 102.869 156.824 104.945 158.136 107.872H158.254V103.254H160.033V123.261H158.254V118.643H158.136C156.824 121.565 153.577 123.646 149.749 123.646C144.648 123.641 139.739 120.024 139.739 113.255ZM149.905 121.988C154.039 121.988 158.292 119.103 158.292 113.255C158.292 107.407 154.039 104.523 149.905 104.523C145.771 104.523 141.556 107.369 141.556 113.255C141.556 119.141 145.766 121.988 149.905 121.988Z" fill="#222160"/>
<path d="M166.641 120.292V104.786H164.13V103.245H166.641V98.1294H168.42V103.245H172.285V104.786H168.42V119.869C168.42 121.217 169.076 121.87 170.393 121.87C170.855 121.87 171.436 121.795 172.21 121.447V122.946C171.516 123.369 170.78 123.486 170.081 123.486C167.995 123.486 166.641 122.486 166.641 120.292Z" fill="#222160"/>
<path d="M176.617 95.9404H178.396V97.7865H176.617V95.9404ZM176.617 103.25H178.396V123.256H176.617V103.25Z" fill="#222160"/>
<path d="M182.106 103.25H183.999L191.498 120.87L199.035 103.25H200.928L192.31 123.256H190.724L182.106 103.25Z" fill="#222160"/>
<path d="M202.551 113.218C202.551 106.524 207.384 102.869 212.405 102.869C217.507 102.869 222.533 106.599 221.953 113.871H204.25C204.561 119.141 208.464 121.988 212.868 121.988C215.572 121.988 218.007 120.95 219.48 119.103L220.523 120.142C218.668 122.41 215.728 123.641 212.674 123.641C207.384 123.641 202.551 119.949 202.551 113.218ZM220.372 112.367C220.216 107.365 216.506 104.518 212.41 104.518C208.427 104.518 204.642 107.21 204.292 112.367H220.372Z" fill="#222160"/>
<path d="M51.8341 142.318V141.247H51.7964C51.551 141.777 50.692 142.449 49.4602 142.449C47.865 142.449 46.1943 141.275 46.1943 138.964C46.1943 136.653 47.865 135.478 49.4602 135.478C50.692 135.478 51.5462 136.15 51.7964 136.681H51.8341V133.158H53.2594V142.322H51.8341V142.318ZM49.734 141.157C50.8242 141.157 51.8719 140.411 51.8719 138.964C51.8719 137.517 50.8194 136.77 49.734 136.77C48.6579 136.77 47.6055 137.517 47.6055 138.964C47.6055 140.406 48.6579 141.157 49.734 141.157Z" fill="#222160"/>
<path d="M54.6846 133.153H56.1099V134.431H54.6846V133.153ZM54.6846 135.605H56.1099V142.318H54.6846V135.605Z" fill="#222160"/>
<path d="M58.8327 144.563V143.388C59.1441 143.595 59.8049 143.802 60.5553 143.802C61.8626 143.802 62.8489 143.21 62.8489 141.942V141.246H62.7734C62.5422 141.777 61.6974 142.449 60.4797 142.449C58.8987 142.449 57.2139 141.275 57.2139 138.964C57.2139 136.652 58.8987 135.478 60.4797 135.478C61.6974 135.478 62.5422 136.15 62.7734 136.681H62.8489V135.61H64.2742V141.867C64.2742 144.342 62.3439 145.004 60.8007 145.004C59.9606 145 59.1961 144.807 58.8327 144.563ZM60.7488 141.157C61.839 141.157 62.8867 140.41 62.8867 138.964C62.8867 137.517 61.8342 136.77 60.7488 136.77C59.6727 136.77 58.6203 137.517 58.6203 138.964C58.625 140.406 59.6727 141.157 60.7488 141.157Z" fill="#222160"/>
<path d="M65.7002 133.153H67.1255V134.431H65.7002V133.153ZM65.7002 135.605H67.1255V142.318H65.7002V135.605Z" fill="#222160"/>
<path d="M69.1639 140.692V136.756H68.2295V135.605H69.1639V133.891H70.6034V135.605H71.9626V136.756H70.6034V140.434C70.6034 140.819 70.811 141.12 71.3443 141.12C71.5001 141.12 71.7219 141.096 71.9673 141.003V142.125C71.7219 142.332 71.2783 142.398 70.9149 142.398C69.886 142.393 69.1639 141.89 69.1639 140.692Z" fill="#222160"/>
<path d="M72.7412 138.964C72.7412 136.652 74.4119 135.478 76.0071 135.478C77.2389 135.478 78.0931 136.15 78.3432 136.681H78.381V135.61H79.8063V142.322H78.381V141.251H78.3432C78.0978 141.782 77.2389 142.454 76.0071 142.454C74.4119 142.444 72.7412 141.27 72.7412 138.964ZM76.2808 141.157C77.371 141.157 78.4188 140.41 78.4188 138.964C78.4188 137.517 77.3663 136.77 76.2808 136.77C75.2048 136.77 74.1523 137.517 74.1523 138.964C74.1523 140.406 75.2048 141.157 76.2808 141.157Z" fill="#222160"/>
<path d="M81.2314 133.153H82.6567V142.318H81.2314V133.153Z" fill="#222160"/>
<path d="M87.4139 140.692V136.756H86.4795V135.605H87.4139V133.891H88.8534V135.605H90.2126V136.756H88.8534V140.434C88.8534 140.819 89.061 141.12 89.5943 141.12C89.7501 141.12 89.9719 141.096 90.2173 141.003V142.125C89.9719 142.332 89.5283 142.398 89.1649 142.398C88.136 142.393 87.4139 141.89 87.4139 140.692Z" fill="#222160"/>
<path d="M91.3789 135.605H92.8042V137.334C93.0354 136.329 93.7103 135.474 94.9421 135.474C95.0979 135.474 95.2253 135.488 95.3716 135.525V136.878C95.23 136.85 95.112 136.841 94.9563 136.841C93.6726 136.841 92.8042 137.771 92.8042 139.175V142.313H91.3789V135.605Z" fill="#222160"/>
<path d="M95.9424 138.964C95.9424 136.652 97.6131 135.478 99.2083 135.478C100.44 135.478 101.294 136.15 101.544 136.681H101.582V135.61H103.007V142.322H101.582V141.251H101.544C101.299 141.782 100.44 142.454 99.2083 142.454C97.6131 142.444 95.9424 141.27 95.9424 138.964ZM99.482 141.157C100.572 141.157 101.62 140.41 101.62 138.964C101.62 137.517 100.567 136.77 99.482 136.77C98.406 136.77 97.3535 137.517 97.3535 138.964C97.3535 140.406 98.406 141.157 99.482 141.157Z" fill="#222160"/>
<path d="M104.433 135.605H105.858V136.61C106.221 135.99 106.934 135.474 108.024 135.474C109.412 135.474 110.606 136.338 110.606 138.363V142.313H109.166V138.597C109.166 137.423 108.52 136.765 107.519 136.765C106.547 136.765 105.858 137.423 105.858 138.597V142.313H104.433V135.605Z" fill="#222160"/>
<path d="M111.64 140.598L112.805 140.274C112.947 140.843 113.376 141.294 114.075 141.294C114.608 141.294 115.127 141.021 115.127 140.429C115.127 140.002 114.844 139.743 114.193 139.485L113.466 139.213C112.352 138.785 111.885 138.104 111.885 137.315C111.885 136.178 112.886 135.469 114.103 135.469C115.259 135.469 116.1 136.103 116.336 137.08L115.208 137.376C115.014 136.836 114.637 136.601 114.169 136.601C113.65 136.601 113.287 136.883 113.287 137.324C113.287 137.672 113.509 137.968 114.117 138.189L114.778 138.447C115.713 138.795 116.553 139.274 116.553 140.42C116.553 141.763 115.411 142.435 114.089 142.435C112.791 142.444 111.847 141.787 111.64 140.598Z" fill="#222160"/>
<path d="M120.116 132.885C120.479 132.885 120.918 132.951 121.244 133.144V134.266C120.946 134.125 120.635 134.097 120.465 134.097C119.819 134.097 119.455 134.445 119.455 135.196V135.61H121.244V136.761H119.455V142.322H118.016V136.761H117.199V135.61H118.016V135.027C118.016 133.219 119.262 132.885 120.116 132.885Z" fill="#222160"/>
<path d="M121.763 138.964C121.763 136.704 123.537 135.478 125.288 135.478C127.039 135.478 128.814 136.704 128.814 138.964C128.814 141.223 127.039 142.449 125.288 142.449C123.537 142.444 121.763 141.218 121.763 138.964ZM125.288 141.143C126.393 141.143 127.388 140.345 127.388 138.964C127.388 137.582 126.388 136.784 125.288 136.784C124.184 136.784 123.174 137.582 123.174 138.964C123.174 140.345 124.184 141.143 125.288 141.143Z" fill="#222160"/>
<path d="M129.913 135.605H131.338V137.334C131.57 136.329 132.245 135.474 133.476 135.474C133.632 135.474 133.759 135.488 133.906 135.525V136.878C133.764 136.85 133.646 136.841 133.49 136.841C132.207 136.841 131.338 137.771 131.338 139.175V142.313H129.913V135.605Z" fill="#222160"/>
<path d="M139.367 138.471C139.367 137.385 138.833 136.765 137.941 136.765C137.021 136.765 136.426 137.385 136.426 138.471V142.318H135.001V135.605H136.426V136.559C136.776 135.967 137.413 135.474 138.423 135.474C139.305 135.474 140.056 135.859 140.471 136.7C140.834 136.042 141.575 135.474 142.727 135.474C144.138 135.474 145.176 136.366 145.176 138.391V142.313H143.737V138.466C143.737 137.381 143.203 136.761 142.311 136.761C141.391 136.761 140.806 137.381 140.806 138.466V142.313H139.367V138.471Z" fill="#222160"/>
<path d="M146.257 138.964C146.257 136.652 147.928 135.478 149.523 135.478C150.755 135.478 151.609 136.15 151.859 136.681H151.897V135.61H153.322V142.322H151.897V141.251H151.859C151.613 141.782 150.755 142.454 149.523 142.454C147.932 142.444 146.257 141.27 146.257 138.964ZM149.796 141.157C150.887 141.157 151.934 140.41 151.934 138.964C151.934 137.517 150.882 136.77 149.796 136.77C148.72 136.77 147.668 137.517 147.668 138.964C147.673 140.406 148.72 141.157 149.796 141.157Z" fill="#222160"/>
<path d="M155.356 140.692V136.756H154.422V135.605H155.356V133.891H156.796V135.605H158.155V136.756H156.796V140.434C156.796 140.819 157.003 141.12 157.537 141.12C157.692 141.12 157.914 141.096 158.16 141.003V142.125C157.914 142.332 157.471 142.398 157.107 142.398C156.083 142.393 155.356 141.89 155.356 140.692Z" fill="#222160"/>
<path d="M159.325 133.153H160.75V134.431H159.325V133.153ZM159.325 135.605H160.75V142.318H159.325V135.605Z" fill="#222160"/>
<path d="M161.851 138.964C161.851 136.704 163.625 135.478 165.376 135.478C167.127 135.478 168.902 136.704 168.902 138.964C168.902 141.223 167.127 142.449 165.376 142.449C163.63 142.444 161.851 141.218 161.851 138.964ZM165.376 141.143C166.48 141.143 167.476 140.345 167.476 138.964C167.476 137.582 166.476 136.784 165.376 136.784C164.272 136.784 163.262 137.582 163.262 138.964C163.262 140.345 164.276 141.143 165.376 141.143Z" fill="#222160"/>
<path d="M170.006 135.605H171.431V136.61C171.795 135.99 172.507 135.474 173.597 135.474C174.985 135.474 176.179 136.338 176.179 138.363V142.313H174.74V138.597C174.74 137.423 174.093 136.765 173.092 136.765C172.12 136.765 171.431 137.423 171.431 138.597V142.313H170.006V135.605Z" fill="#222160"/>
</g>
<defs>
<linearGradient id="paint0_linear_242_1615" x1="20.1727" y1="40.1265" x2="230.389" y2="40.1265" gradientUnits="userSpaceOnUse">
<stop stop-color="#222160"/>
<stop offset="0.3583" stop-color="#ED2290"/>
<stop offset="0.6879" stop-color="#6AC8C1"/>
<stop offset="1" stop-color="#4673B9"/>
</linearGradient>
<linearGradient id="paint1_linear_242_1615" x1="20.1722" y1="46.408" x2="230.388" y2="46.408" gradientUnits="userSpaceOnUse">
<stop stop-color="#222160"/>
<stop offset="0.3583" stop-color="#ED2290"/>
<stop offset="0.6879" stop-color="#6AC8C1"/>
<stop offset="1" stop-color="#4673B9"/>
</linearGradient>
<clipPath id="clip0_242_1615">
<rect width="222" height="145" fill="white"/>
</clipPath>
</defs>
</svg>
