<svg width="48" height="48" viewBox="0 0 48 48" fill="none" xmlns="http://www.w3.org/2000/svg">
<path fill-rule="evenodd" clip-rule="evenodd" d="M14.1745 0.309748C16.716 0.192748 17.5263 0.166748 24.0003 0.166748C30.4743 0.166748 31.2847 0.194915 33.824 0.309748C36.3633 0.424581 38.0967 0.829748 39.6133 1.41691C41.2015 2.01708 42.6423 2.95525 43.834 4.16858C45.0473 5.35808 45.9833 6.79675 46.5813 8.38708C47.1707 9.90375 47.5737 11.6371 47.6907 14.1721C47.8077 16.7179 47.8337 17.5282 47.8337 24.0001C47.8337 30.4741 47.8055 31.2844 47.6907 33.8259C47.5758 36.3609 47.1707 38.0942 46.5813 39.6109C45.9833 41.2015 45.0458 42.6425 43.834 43.8337C42.6423 45.0471 41.2015 45.9831 39.6133 46.5811C38.0967 47.1704 36.3633 47.5734 33.8283 47.6904C31.2847 47.8074 30.4743 47.8334 24.0003 47.8334C17.5263 47.8334 16.716 47.8052 14.1745 47.6904C11.6395 47.5756 9.90616 47.1704 8.38949 46.5811C6.79899 45.983 5.35794 45.0455 4.16666 43.8337C2.95415 42.6435 2.01584 41.2032 1.41716 39.6131C0.829992 38.0964 0.426992 36.3631 0.309992 33.8281C0.192992 31.2822 0.166992 30.4719 0.166992 24.0001C0.166992 17.5261 0.195159 16.7157 0.309992 14.1764C0.424825 11.6371 0.829992 9.90375 1.41716 8.38708C2.01673 6.79693 2.95575 5.35659 4.16883 4.16641C5.35841 2.95417 6.79802 2.01588 8.38733 1.41691C9.90399 0.829748 11.6373 0.426748 14.1723 0.309748H14.1745ZM33.6312 4.59975C31.1178 4.48491 30.3638 4.46108 24.0003 4.46108C17.6368 4.46108 16.8828 4.48491 14.3695 4.59975C12.0447 4.70591 10.7837 5.09375 9.94299 5.42091C8.83149 5.85425 8.03633 6.36775 7.20216 7.20192C6.41142 7.97119 5.80288 8.90769 5.42116 9.94275C5.09399 10.7834 4.70616 12.0444 4.59999 14.3692C4.48516 16.8826 4.46133 17.6366 4.46133 24.0001C4.46133 30.3636 4.48516 31.1176 4.59999 33.6309C4.70616 35.9557 5.09399 37.2168 5.42116 38.0574C5.80249 39.0909 6.41133 40.0291 7.20216 40.7982C7.97133 41.5891 8.90949 42.1979 9.94299 42.5793C10.7837 42.9064 12.0447 43.2943 14.3695 43.4004C16.8828 43.5153 17.6347 43.5391 24.0003 43.5391C30.366 43.5391 31.1178 43.5153 33.6312 43.4004C35.956 43.2943 37.217 42.9064 38.0577 42.5793C39.1692 42.1459 39.9643 41.6324 40.7985 40.7982C41.5893 40.0291 42.1982 39.0909 42.5795 38.0574C42.9067 37.2168 43.2945 35.9557 43.4007 33.6309C43.5155 31.1176 43.5393 30.3636 43.5393 24.0001C43.5393 17.6366 43.5155 16.8826 43.4007 14.3692C43.2945 12.0444 42.9067 10.7834 42.5795 9.94275C42.1462 8.83125 41.6327 8.03608 40.7985 7.20192C40.0292 6.41124 39.0927 5.8027 38.0577 5.42091C37.217 5.09375 35.956 4.70591 33.6312 4.59975ZM20.9562 31.3472C22.6563 32.0549 24.5493 32.1505 26.312 31.6175C28.0747 31.0845 29.5977 29.9561 30.6208 28.4249C31.644 26.8938 32.1038 25.055 31.9218 23.2225C31.7397 21.39 30.9272 19.6775 29.6228 18.3776C28.7913 17.5466 27.786 16.9103 26.679 16.5146C25.5721 16.1188 24.3913 15.9734 23.2214 16.0887C22.0515 16.2041 20.9218 16.5775 19.9136 17.1819C18.9053 17.7863 18.0436 18.6067 17.3905 19.5841C16.7374 20.5615 16.3091 21.6715 16.1364 22.8343C15.9638 23.9971 16.0512 25.1837 16.3922 26.3087C16.7332 27.4337 17.3194 28.4691 18.1086 29.3403C18.8977 30.2116 19.8703 30.897 20.9562 31.3472ZM15.338 15.3377C16.4755 14.2002 17.826 13.2978 19.3123 12.6822C20.7986 12.0666 22.3916 11.7497 24.0003 11.7497C25.6091 11.7497 27.2021 12.0666 28.6883 12.6822C30.1746 13.2978 31.5251 14.2002 32.6627 15.3377C33.8002 16.4753 34.7026 17.8258 35.3182 19.3121C35.9338 20.7983 36.2507 22.3913 36.2507 24.0001C36.2507 25.6088 35.9338 27.2018 35.3182 28.6881C34.7026 30.1744 33.8002 31.5249 32.6627 32.6624C30.3653 34.9598 27.2493 36.2505 24.0003 36.2505C20.7513 36.2505 17.6354 34.9598 15.338 32.6624C13.0406 30.365 11.7499 27.2491 11.7499 24.0001C11.7499 20.7511 13.0406 17.6351 15.338 15.3377ZM38.9677 13.5741C39.2496 13.3082 39.4752 12.9884 39.6313 12.6337C39.7874 12.279 39.8708 11.8966 39.8764 11.5091C39.882 11.1216 39.8099 10.7369 39.6642 10.3778C39.5185 10.0187 39.3023 9.69252 39.0282 9.4185C38.7542 9.14448 38.428 8.92822 38.0689 8.78254C37.7098 8.63685 37.3251 8.5647 36.9376 8.57034C36.5502 8.57599 36.1677 8.65933 35.813 8.81542C35.4584 8.97152 35.1386 9.19719 34.8727 9.47908C34.3555 10.0273 34.0724 10.7555 34.0833 11.5091C34.0943 12.2627 34.3986 12.9823 34.9315 13.5152C35.4644 14.0482 36.1841 14.3524 36.9376 14.3634C37.6912 14.3744 38.4194 14.0912 38.9677 13.5741Z" fill="#222160"/>
</svg>
